<?xml version="1.0" standalone="no"?>
<!DOCTYPE svg PUBLIC "-//W3C//DTD SVG 20010904//EN"
 "http://www.w3.org/TR/2001/REC-SVG-20010904/DTD/svg10.dtd">
<svg version="1.0" xmlns="http://www.w3.org/2000/svg"
 width="3963.000000pt" height="3963.000000pt" viewBox="0 0 3963.000000 3963.000000"
 preserveAspectRatio="xMidYMid meet">
<metadata>
Created by potrace 1.11, written by Peter Selinger 2001-2013
</metadata>
<g transform="translate(0.000000,3963.000000) scale(0.100000,-0.100000)"
fill="#000000" stroke="none">
<path d="M20197 39603 c-6 -30 0 -1596 7 -1868 3 -88 7 -272 11 -410 10 -443
21 -634 37 -685 19 -63 56 -98 206 -197 311 -205 408 -358 410 -644 1 -230
-62 -392 -211 -543 -101 -101 -209 -186 -237 -186 -7 0 -9 -12 -6 -32 2 -18 8
-55 11 -83 13 -95 82 -459 94 -495 5 -14 14 -50 20 -80 84 -388 292 -1040 489
-1530 211 -525 421 -922 610 -1155 189 -231 395 -389 977 -745 138 -84 273
-167 300 -184 28 -18 57 -36 65 -39 8 -4 34 -20 58 -35 23 -15 129 -81 235
-147 105 -65 194 -123 195 -127 2 -4 8 -8 13 -8 7 0 109 -63 164 -102 5 -4
100 -67 210 -141 110 -73 234 -157 275 -187 91 -64 303 -222 310 -230 3 -3 23
-19 45 -35 50 -37 333 -272 361 -300 11 -11 43 -40 70 -63 103 -91 350 -340
454 -457 29 -33 67 -76 85 -95 74 -81 298 -369 393 -506 130 -187 186 -274
285 -444 84 -145 287 -548 287 -572 0 -8 4 -18 8 -24 5 -5 24 -47 41 -94 18
-47 41 -105 51 -130 76 -191 178 -586 205 -795 4 -29 25 -175 31 -210 56 -350
176 -634 332 -790 100 -100 237 -181 457 -270 22 -9 47 -18 55 -20 24 -5 233
-64 250 -71 16 -6 -19 -40 -170 -162 -52 -42 -100 -81 -106 -87 -6 -5 -36 -28
-67 -50 -58 -42 -59 -44 -82 -165 -3 -14 -9 -47 -15 -75 -14 -68 -19 -94 -26
-135 -7 -44 -33 -188 -39 -216 -3 -11 -10 -21 -17 -21 -13 -1 -294 -79 -403
-112 -33 -11 -154 -45 -270 -77 -115 -32 -212 -59 -214 -61 -2 -1 -5 -298 -7
-660 -4 -925 -15 -1353 -40 -1563 -3 -25 -15 -90 -26 -144 -106 -525 -345
-936 -719 -1241 -231 -188 -646 -358 -953 -391 -33 -3 -68 -8 -79 -10 -46 -8
-232 -18 -367 -18 -349 -1 -557 40 -795 155 -201 96 -262 146 -645 529 -426
425 -529 548 -631 755 -69 140 -88 217 -71 282 18 66 55 116 114 155 48 32
222 106 323 138 189 59 419 164 553 253 124 83 142 97 227 182 114 113 194
228 268 385 53 113 127 353 114 367 -4 3 -53 -10 -109 -30 -235 -80 -344 -101
-533 -101 -169 0 -225 12 -361 74 -71 33 -191 102 -204 119 -3 3 -21 18 -40
32 -99 74 -255 259 -320 380 -33 63 -32 65 35 75 40 6 134 23 165 29 14 3 39
8 55 10 59 11 226 56 273 74 94 37 171 87 233 153 42 44 139 181 139 197 0 13
4 13 -150 16 -248 4 -352 26 -517 107 -72 36 -200 119 -255 165 -41 35 -228
221 -249 249 -56 72 -99 135 -99 143 0 5 -4 11 -9 13 -16 5 -17 33 -1 34 117
5 275 37 350 72 64 29 178 139 210 201 11 23 19 41 17 41 -8 0 -173 41 -202
51 -16 5 -59 18 -95 30 -111 35 -263 116 -361 190 -52 40 -96 75 -99 78 -3 3
-57 51 -120 105 -63 55 -119 104 -125 110 -5 6 -44 40 -85 76 -41 36 -77 67
-80 70 -5 6 -241 201 -270 224 -131 103 -330 227 -495 308 -66 33 -131 66
-145 73 -44 23 -233 97 -300 117 -36 10 -114 30 -175 43 -104 22 -125 24 -370
20 -143 -2 -276 -6 -295 -8 -19 -3 -72 -8 -117 -11 -45 -4 -91 -9 -102 -11
-12 -2 -58 -7 -104 -10 -45 -4 -98 -8 -117 -10 -54 -6 -340 -6 -382 0 -21 3
-158 45 -305 95 -416 138 -653 195 -1038 246 -91 12 -483 12 -575 -1 -371 -49
-627 -163 -864 -386 -117 -109 -201 -233 -288 -424 -19 -44 -56 -170 -51 -179
3 -4 20 7 37 26 68 74 221 183 319 227 121 55 294 77 421 55 135 -24 188 -55
249 -147 59 -87 82 -105 457 -348 63 -42 126 -82 140 -91 37 -24 352 -240 380
-261 607 -442 821 -668 1031 -1087 90 -180 136 -304 224 -600 13 -46 80 -332
89 -385 3 -16 8 -41 12 -55 13 -59 18 -197 18 -535 0 -523 -7 -613 -60 -840
-14 -60 -27 -117 -29 -125 -7 -37 -66 -216 -95 -289 -106 -269 -250 -495 -444
-699 -100 -104 -164 -156 -276 -223 -85 -52 -295 -154 -335 -165 -5 -1 -28
-10 -50 -19 -195 -84 -637 -202 -904 -241 -25 -4 -54 -8 -64 -10 -10 -2 -45
-6 -78 -9 -33 -4 -69 -8 -80 -10 -112 -22 -604 -22 -689 0 -8 2 -33 6 -55 9
-22 4 -51 8 -65 11 -14 3 -34 7 -45 9 -193 39 -448 136 -600 229 -52 32 -170
110 -181 121 -6 6 -25 20 -40 31 -64 44 -194 170 -281 270 -71 83 -173 220
-173 234 0 5 -4 11 -8 13 -13 5 -89 143 -157 283 -72 150 -118 265 -183 455
l-45 135 -1 1000 -1 1000 -130 42 c-71 23 -175 55 -230 72 -194 59 -361 110
-427 131 -78 24 -70 5 -112 240 -46 248 -66 335 -79 345 -7 6 -46 37 -87 70
-40 33 -96 77 -124 99 -28 21 -79 64 -114 94 -77 66 -74 73 48 97 47 9 92 18
100 20 225 47 471 152 569 244 110 104 186 281 240 561 13 70 16 84 37 240 2
19 11 94 19 165 8 72 17 146 20 165 4 32 10 89 19 180 2 19 9 76 15 125 6 50
14 113 17 140 3 28 9 77 14 110 5 33 12 78 15 100 8 52 14 84 20 115 5 23 8
37 20 100 21 108 132 482 164 555 5 11 35 81 66 155 76 182 161 341 298 564
52 85 224 325 288 401 168 201 367 411 524 555 34 30 81 73 105 96 90 81 318
264 460 367 80 59 150 110 155 115 23 18 516 342 521 342 2 0 34 19 71 43 202
129 494 287 1023 555 818 413 941 483 1145 652 36 30 230 224 265 265 14 17
49 62 78 100 28 39 55 75 59 80 28 38 113 164 113 169 0 3 13 24 29 48 92 136
266 472 383 738 11 25 31 69 44 98 13 29 24 58 24 65 0 7 4 17 9 23 12 12 119
297 175 465 69 209 159 524 181 634 3 11 9 38 14 60 27 111 66 310 76 385 3
25 10 70 15 100 5 30 12 75 14 100 2 25 7 75 11 112 7 66 7 67 -23 82 -78 40
-216 196 -280 316 -109 204 -139 486 -72 680 21 62 42 112 50 120 3 3 17 21
31 40 43 56 101 113 234 225 127 108 130 113 141 320 16 280 0 2694 -19 2807
-15 91 -84 -122 -137 -427 -13 -71 -24 -139 -26 -150 -2 -10 -6 -37 -9 -60 -3
-22 -8 -47 -10 -55 -2 -8 -7 -35 -10 -60 -3 -25 -8 -56 -10 -70 -3 -14 -7 -34
-9 -45 -4 -23 -23 -144 -31 -195 -2 -19 -7 -46 -10 -60 -3 -14 -7 -36 -9 -50
-6 -35 -20 -114 -21 -120 0 -3 -4 -26 -8 -51 -12 -75 -17 -100 -32 -174 -8
-38 -16 -81 -18 -95 -71 -396 -248 -996 -383 -1298 -120 -268 -239 -505 -320
-638 -10 -18 -34 -58 -53 -90 -38 -64 -151 -243 -164 -259 -4 -5 -40 -57 -80
-114 -40 -57 -79 -113 -87 -125 -36 -51 -190 -250 -269 -346 -354 -433 -874
-955 -1172 -1178 -46 -35 -93 -70 -103 -79 -38 -31 -243 -162 -348 -222 -421
-242 -902 -385 -1288 -385 -155 0 -338 28 -333 50 1 5 41 68 88 139 105 156
209 367 263 530 42 127 91 335 107 455 6 47 17 125 21 149 3 25 18 194 29 335
14 172 6 621 -11 648 -3 5 -27 -17 -52 -48 -207 -251 -531 -585 -809 -834
-243 -218 -641 -521 -975 -742 -113 -75 -372 -240 -413 -262 -23 -13 -121 -71
-150 -89 -108 -66 -546 -311 -710 -397 -77 -40 -185 -96 -240 -125 -95 -50
-224 -116 -572 -296 -230 -119 -492 -262 -623 -342 -99 -60 -363 -235 -402
-266 -7 -5 -61 -48 -119 -94 -135 -107 -162 -131 -279 -247 -263 -262 -459
-551 -652 -965 -117 -250 -209 -529 -273 -822 -3 -13 -7 -33 -10 -45 -8 -35
-55 -278 -61 -318 -3 -19 -7 -46 -9 -60 -12 -75 -27 -182 -31 -230 -3 -30 -7
-73 -9 -95 -19 -175 -28 -966 -13 -1183 6 -84 -2 -115 -15 -60 -3 13 -22 79
-42 148 -38 133 -69 266 -80 340 -4 25 -10 63 -15 85 -5 22 -11 69 -15 105 -3
36 -8 72 -10 80 -2 8 -7 47 -10 85 -4 39 -9 84 -10 100 -30 297 -25 894 10
1175 3 30 8 71 10 90 11 96 19 149 46 315 17 99 32 194 35 210 33 191 146 708
205 940 17 66 33 127 34 135 2 8 13 51 25 95 12 44 28 103 35 130 11 42 89
311 140 485 7 25 30 97 50 160 20 63 38 120 39 125 2 6 8 29 15 53 17 61 8 74
-18 27 -31 -58 -214 -347 -398 -629 -363 -558 -820 -1184 -1043 -1429 -78 -87
-121 -131 -310 -322 -219 -223 -422 -419 -781 -755 -410 -385 -678 -654 -771
-775 -12 -16 -33 -42 -46 -56 -12 -14 -56 -71 -97 -125 -41 -54 -78 -103 -82
-109 -19 -24 -106 -148 -174 -250 -330 -490 -514 -946 -557 -1385 -9 -95 -9
-425 0 -507 44 -388 170 -722 489 -1290 112 -199 385 -613 551 -835 266 -354
455 -574 816 -947 122 -126 121 -131 -8 -96 -502 135 -1003 415 -1415 788
-207 188 -522 525 -620 662 -11 16 -25 33 -31 39 -66 67 -398 549 -524 761
-78 132 -121 195 -131 195 -38 0 -301 -857 -363 -1180 -2 -14 -21 -106 -41
-205 -20 -99 -38 -198 -41 -220 -3 -22 -12 -78 -19 -125 -8 -47 -16 -105 -19
-130 -3 -25 -8 -55 -11 -68 -2 -13 -7 -51 -10 -85 -3 -34 -8 -78 -10 -97 -26
-237 -26 -1105 -1 -1248 2 -9 7 -48 11 -86 4 -38 9 -79 10 -90 6 -31 35 -207
40 -236 26 -151 85 -387 138 -550 195 -596 501 -1035 977 -1402 490 -378 1496
-855 2211 -1048 85 -23 160 -45 167 -49 16 -9 -26 -27 -178 -79 -103 -35 -317
-93 -395 -107 -16 -2 -39 -7 -50 -9 -11 -2 -42 -7 -70 -10 -27 -4 -61 -9 -75
-11 -105 -16 -294 -28 -455 -28 -130 0 -397 11 -445 18 -14 2 -65 6 -113 10
-48 3 -96 8 -105 10 -9 1 -44 6 -77 9 -71 8 -251 31 -315 41 -14 2 -61 9 -105
15 -44 6 -129 20 -190 30 -60 11 -128 22 -150 25 -22 3 -89 15 -150 26 -153
28 -333 59 -375 65 -19 3 -50 9 -68 14 -26 7 -34 5 -39 -7 -6 -14 37 -140 78
-230 10 -24 19 -46 19 -51 0 -5 9 -26 19 -48 10 -21 45 -97 76 -169 31 -71 71
-159 87 -195 17 -36 55 -119 85 -185 59 -131 315 -643 357 -715 14 -25 29 -52
33 -60 6 -13 33 -63 115 -210 14 -25 63 -106 108 -180 45 -74 92 -151 104
-170 36 -61 196 -291 266 -385 146 -194 350 -415 495 -535 53 -43 258 -195
320 -237 338 -225 712 -375 1035 -413 75 -8 569 -6 645 4 22 3 67 8 100 11 56
5 178 21 235 31 43 7 194 34 225 40 67 12 307 75 417 108 197 60 350 122 603
243 78 37 -312 -306 -545 -481 -63 -47 -120 -89 -125 -93 -6 -5 -42 -29 -80
-54 -150 -100 -227 -149 -231 -149 -2 0 -23 -12 -47 -27 -82 -52 -338 -184
-457 -236 -39 -16 -181 -68 -250 -91 -141 -46 -587 -166 -680 -183 -13 -2 -56
-11 -95 -20 -101 -22 -248 -51 -340 -68 -63 -11 -249 -46 -375 -70 -8 -1 -14
-8 -12 -15 2 -11 47 -75 62 -90 3 -3 32 -39 65 -80 32 -41 64 -80 70 -86 5 -6
28 -33 50 -60 34 -41 79 -94 120 -140 210 -237 256 -285 535 -565 224 -224
387 -379 540 -514 42 -37 66 -57 190 -160 63 -52 273 -204 348 -251 35 -21 75
-47 90 -56 67 -42 295 -160 398 -205 84 -38 354 -129 404 -137 19 -3 50 -10
68 -15 17 -5 32 -8 32 -6 0 3 11 0 24 -5 37 -14 356 -58 481 -66 238 -16 506
-7 640 21 103 22 118 26 127 31 4 3 16 7 25 9 48 9 230 82 347 138 151 73 302
163 428 254 48 34 92 63 98 63 14 0 5 -33 -52 -190 -132 -365 -310 -628 -553
-817 -221 -173 -632 -328 -970 -368 -27 -3 -63 -8 -80 -10 -51 -7 -302 -16
-473 -18 -90 -1 -165 -4 -168 -8 -5 -9 478 -387 646 -504 165 -115 312 -215
317 -215 3 0 22 -12 42 -27 20 -16 45 -33 56 -39 11 -6 71 -44 133 -83 62 -39
114 -71 115 -71 2 0 59 -32 128 -71 486 -279 1016 -484 1404 -543 151 -23 197
-26 433 -27 265 0 424 8 585 32 40 6 81 12 92 13 11 2 29 6 40 9 11 3 35 9 54
12 129 22 386 106 546 178 318 143 561 316 849 602 431 429 645 758 846 1303
29 79 59 150 67 158 20 19 36 7 110 -86 60 -76 138 -156 274 -285 195 -184
304 -272 504 -405 139 -93 484 -337 545 -387 8 -6 69 -53 135 -104 153 -118
270 -218 363 -308 82 -79 85 -80 137 -16 66 81 109 181 129 295 3 19 8 46 11
60 8 36 8 267 1 320 -16 106 -28 165 -51 233 -12 39 -21 75 -19 79 3 5 51 -27
107 -69 99 -76 207 -144 345 -220 37 -20 90 -49 117 -65 28 -15 57 -31 65 -35
42 -22 175 -103 255 -156 81 -54 120 -84 220 -167 71 -59 265 -262 326 -340
208 -266 319 -521 369 -840 23 -148 28 -192 35 -284 3 -38 8 -72 11 -75 3 -3
46 35 94 86 76 80 95 109 148 215 163 332 225 672 226 1233 0 161 -9 394 -18
460 -2 17 -7 64 -10 105 -4 41 -9 86 -11 100 -2 14 -7 50 -11 80 -10 83 -11
89 -23 170 -6 41 -13 89 -16 105 -4 34 -15 97 -21 129 -2 11 -11 62 -19 111
-27 155 -107 533 -139 655 -3 8 -9 35 -15 60 -15 60 -44 164 -80 285 -16 55
-39 130 -50 168 -11 37 -16 67 -11 67 13 0 131 -75 262 -166 154 -108 310
-232 464 -369 138 -123 215 -196 399 -380 121 -121 252 -254 290 -296 148
-162 257 -285 335 -379 34 -41 73 -87 86 -103 118 -135 529 -696 619 -844 11
-18 53 -85 93 -148 39 -63 72 -117 72 -120 0 -11 70 -115 77 -115 5 0 17 19
28 43 89 191 422 728 560 902 17 21 57 72 90 114 60 76 271 294 355 367 85 73
153 129 234 192 201 155 742 527 749 514 3 -4 3 -20 2 -37 -25 -217 -22 -587
6 -800 34 -261 115 -490 232 -665 59 -86 194 -230 275 -292 32 -24 59 -46 62
-49 11 -14 191 -129 275 -176 211 -118 400 -196 722 -297 68 -21 289 -76 332
-82 18 -2 36 -6 41 -9 15 -10 224 -19 410 -19 166 0 291 5 495 19 75 5 258 23
305 30 14 2 52 6 85 9 59 6 111 13 170 22 17 3 59 9 95 14 68 10 96 14 195 32
33 5 74 12 90 15 92 14 399 87 530 127 6 1 30 8 55 15 140 38 592 195 695 241
22 10 76 32 120 50 89 35 194 80 270 115 443 204 697 336 1087 564 102 60 216
136 213 141 -3 4 -33 17 -67 30 -389 137 -782 344 -1018 535 -275 222 -602
680 -753 1056 -36 90 -63 187 -54 196 7 6 9 5 217 -75 141 -55 413 -145 472
-156 12 -2 61 -14 108 -25 88 -22 99 -24 190 -41 30 -6 64 -12 75 -14 11 -2
45 -7 75 -11 30 -4 62 -9 70 -10 128 -23 643 -23 730 0 8 2 40 6 71 10 31 3
65 7 75 9 11 2 39 7 64 11 84 14 95 16 130 25 19 5 53 12 74 16 22 3 49 9 60
14 12 4 23 8 26 8 40 1 376 112 478 158 29 13 55 24 58 24 13 0 255 125 334
173 209 125 458 350 653 590 21 25 43 52 50 59 7 7 37 45 67 83 30 39 57 72
60 75 3 3 28 36 55 73 28 38 60 81 71 95 77 98 394 590 394 612 0 6 -33 10
-77 11 -43 0 -107 2 -143 4 -36 1 -148 6 -250 10 -304 11 -501 19 -695 30
-130 7 -426 32 -485 40 -19 3 -51 7 -70 10 -235 29 -449 86 -610 163 -93 45
-284 153 -288 164 -2 4 -8 8 -13 8 -19 0 -263 182 -374 280 -76 67 -252 245
-264 268 -14 26 -10 27 60 5 30 -9 56 -17 59 -18 3 -1 12 -4 20 -8 24 -9 145
-47 166 -52 10 -2 53 -13 94 -25 96 -26 322 -77 380 -85 24 -4 47 -8 50 -10 4
-2 29 -7 56 -11 27 -3 51 -8 54 -9 3 -2 42 -8 86 -14 44 -7 90 -13 101 -15 11
-3 44 -7 74 -11 30 -3 65 -8 79 -10 14 -2 50 -6 80 -10 30 -4 66 -8 80 -10
127 -18 421 -24 578 -12 279 22 607 128 885 286 20 11 54 30 75 42 163 91 488
335 623 469 68 66 103 104 208 225 112 128 384 522 505 730 33 55 66 111 75
125 19 31 24 40 150 270 106 193 336 652 414 825 25 55 57 127 72 160 14 33
36 80 47 105 11 25 26 59 33 75 41 91 118 277 186 448 l19 49 -37 -6 c-21 -3
-51 -8 -68 -11 -279 -53 -326 -61 -394 -71 -25 -4 -55 -8 -66 -10 -11 -3 -35
-7 -54 -10 -18 -3 -43 -8 -55 -10 -11 -2 -79 -13 -151 -24 -71 -12 -141 -23
-155 -25 -14 -2 -61 -9 -105 -15 -44 -7 -87 -13 -95 -15 -38 -7 -259 -33 -340
-41 -36 -3 -75 -7 -88 -9 -13 -2 -69 -7 -125 -10 -56 -4 -124 -8 -152 -11 -72
-5 -417 -5 -500 1 -181 13 -353 36 -480 65 -27 7 -59 13 -69 16 -26 5 -189 52
-256 74 -85 27 -190 71 -190 79 0 5 26 14 58 21 31 8 62 15 67 16 6 1 71 20
145 43 642 191 1510 596 1979 924 571 399 912 866 1122 1537 47 150 126 478
145 603 10 69 13 84 18 112 20 117 24 161 32 390 12 333 6 1011 -10 1090 -2
11 -7 47 -10 80 -4 33 -9 71 -11 85 -2 14 -6 45 -10 70 -4 25 -8 56 -10 70 -5
35 -54 330 -60 360 -3 14 -9 48 -14 75 -33 169 -99 450 -147 618 -14 51 -27
97 -28 102 -3 14 -73 238 -98 310 -44 133 -110 311 -118 319 -9 9 -120 -152
-120 -173 0 -6 -4 -11 -8 -11 -5 0 -15 -15 -24 -33 -60 -125 -384 -593 -549
-792 -9 -11 -45 -54 -79 -95 -135 -163 -382 -420 -525 -545 -37 -33 -75 -67
-84 -75 -86 -80 -350 -273 -481 -352 -206 -124 -468 -247 -685 -320 -80 -27
-269 -77 -274 -72 -2 2 17 27 41 56 44 51 75 84 227 243 549 574 1183 1490
1451 2095 18 41 43 98 55 125 36 80 120 338 139 430 25 116 32 152 47 250 5
39 12 84 15 100 21 139 21 502 0 655 -2 14 -7 52 -11 85 -4 33 -9 69 -12 80
-2 11 -8 47 -14 79 -5 33 -12 62 -14 66 -2 4 -7 22 -10 41 -11 67 -77 287
-127 419 -59 161 -198 450 -293 610 -264 445 -490 693 -1415 1556 -440 411
-782 765 -985 1019 -21 28 -42 52 -45 55 -3 3 -35 43 -70 90 -36 47 -70 92
-77 100 -52 64 -244 337 -420 595 -78 116 -146 215 -150 220 -12 15 -251 381
-293 447 -19 31 -66 108 -104 170 -38 62 -87 138 -109 168 -43 62 -43 56 -1
-80 12 -41 37 -122 54 -180 17 -58 36 -116 41 -130 17 -49 178 -629 194 -700
2 -8 17 -67 33 -130 75 -294 186 -812 207 -960 3 -25 8 -52 10 -60 2 -8 6 -28
9 -45 10 -69 28 -182 32 -205 2 -14 7 -45 9 -70 3 -25 8 -56 10 -70 3 -14 7
-56 11 -95 3 -38 8 -73 10 -76 17 -30 26 -841 11 -1054 -8 -118 -33 -330 -42
-365 -2 -8 -6 -36 -9 -62 -7 -57 -39 -221 -67 -333 -18 -78 -90 -307 -94 -302
-1 1 1 40 5 87 8 95 5 1102 -4 1165 -3 22 -8 65 -11 95 -4 30 -8 69 -10 85 -3
17 -7 48 -9 70 -5 36 -14 94 -21 135 -1 8 -6 35 -10 60 -3 25 -9 59 -11 75 -3
17 -18 93 -35 170 -158 748 -436 1328 -883 1845 -50 57 -274 280 -342 340 -89
78 -177 149 -264 213 -36 26 -73 54 -82 62 -54 44 -569 375 -585 375 -2 0 -28
15 -56 34 -44 29 -346 204 -497 288 -25 14 -70 40 -100 58 -30 18 -64 36 -75
41 -11 5 -27 13 -35 19 -8 5 -166 96 -350 201 -434 247 -385 219 -615 357
-282 170 -343 208 -564 351 -366 235 -569 371 -889 595 -361 253 -565 406
-854 638 -81 65 -152 118 -158 118 -5 0 -10 4 -10 9 0 5 -9 11 -21 14 l-21 6
6 -402 c3 -221 8 -422 10 -447 16 -140 25 -207 41 -300 8 -47 17 -98 20 -115
18 -101 61 -263 103 -385 61 -177 136 -320 268 -512 41 -60 73 -108 72 -109
-125 -34 -395 9 -637 100 -208 79 -406 184 -631 334 -91 61 -286 202 -300 217
-3 3 -52 44 -110 91 -124 102 -310 268 -433 388 -159 154 -340 341 -477 491
-52 58 -106 116 -120 131 -70 73 -268 303 -361 419 -46 58 -87 107 -90 110
-36 30 -379 518 -433 615 -9 17 -26 46 -38 65 -152 253 -285 555 -387 880 -27
89 -105 389 -116 449 -2 14 -15 76 -29 136 -13 61 -29 138 -36 172 -12 66 -17
92 -25 133 -3 14 -9 50 -15 80 -12 64 -16 86 -30 155 -5 28 -12 66 -15 85 -3
19 -12 67 -20 105 -8 39 -17 84 -19 100 -7 40 -48 255 -70 370 -22 113 -70
328 -100 450 -19 77 -58 175 -70 175 -2 0 -6 -12 -9 -27z m-430 -13788 c113
-21 149 -41 215 -117 67 -78 174 -223 197 -266 l13 -24 -64 6 c-34 4 -74 8
-88 11 -51 8 -106 16 -150 21 -82 9 -209 43 -262 70 -93 47 -407 269 -396 279
5 5 132 25 198 31 30 3 56 6 57 7 7 8 212 -5 280 -18z"/>
<path d="M20284 10962 c4 -12 24 -52 45 -90 84 -153 164 -399 186 -572 11 -92
19 -260 19 -405 -1 -217 -10 -300 -58 -555 -79 -421 -260 -927 -441 -1235 -70
-120 -242 -349 -335 -446 -8 -8 -58 -62 -110 -119 -52 -58 -108 -118 -125
-135 -42 -44 -263 -280 -283 -303 -9 -10 -43 -48 -74 -83 -31 -35 -68 -77 -83
-94 -14 -16 -40 -49 -57 -72 -17 -24 -35 -43 -40 -43 -4 0 -8 -6 -8 -14 0 -8
-4 -16 -8 -18 -10 -4 -113 -152 -142 -204 -94 -169 -148 -303 -170 -424 -7
-36 -13 -130 -15 -210 -2 -80 -4 -147 -4 -148 -4 -14 -117 126 -145 178 -55
103 -69 175 -70 335 0 142 16 247 64 415 94 335 94 333 94 515 1 235 -6 266
-122 505 -46 96 -156 276 -195 318 -27 29 -47 28 -47 -2 0 -37 -55 -188 -114
-312 -44 -92 -145 -265 -166 -284 -3 -3 -30 -34 -60 -70 -101 -120 -250 -259
-346 -323 -45 -30 -53 -33 -50 -14 7 32 19 74 27 97 5 14 11 34 13 45 3 11 21
79 41 150 44 157 111 433 120 495 4 24 8 47 10 50 2 3 6 30 10 60 4 30 9 66
11 80 9 54 11 349 2 430 -20 197 -67 357 -167 560 -113 229 -232 391 -451 610
-194 195 -213 210 -895 696 -468 335 -467 334 -474 334 -4 0 -14 -30 -24 -67
-42 -156 -166 -401 -267 -527 -96 -121 -200 -233 -522 -560 -646 -660 -726
-749 -887 -986 -118 -173 -194 -311 -278 -500 -40 -89 -114 -326 -128 -409 -3
-19 -8 -37 -10 -41 -13 -21 -20 -168 -20 -425 0 -264 3 -321 21 -437 6 -33 4
-36 -14 -31 -37 9 -273 207 -412 345 -95 93 -255 274 -518 583 -14 17 -41 48
-61 70 -20 23 -63 72 -96 110 -258 297 -521 543 -737 687 -238 158 -527 299
-800 388 -89 30 -290 84 -343 94 -13 3 -60 12 -102 20 -119 25 -124 26 -178
31 -27 3 -57 8 -65 10 -15 4 -65 10 -170 20 -95 9 -164 16 -198 20 -18 3 -72
8 -120 11 -48 3 -105 7 -127 9 -22 2 -112 7 -199 11 l-159 7 18 -24 c11 -13
63 -62 117 -109 132 -114 347 -330 451 -453 23 -27 47 -55 53 -61 6 -6 46 -57
88 -111 42 -55 80 -104 84 -110 36 -46 122 -175 122 -183 0 -6 4 -12 8 -14 15
-6 150 -242 211 -369 33 -68 76 -168 96 -223 33 -89 100 -333 110 -396 2 -14
6 -45 10 -70 3 -25 10 -67 15 -95 5 -27 11 -77 15 -110 3 -33 8 -78 10 -100 8
-70 18 -216 30 -410 11 -192 24 -365 30 -415 2 -19 7 -64 10 -100 3 -36 7 -83
10 -105 2 -22 6 -73 10 -112 3 -40 8 -80 9 -90 2 -10 7 -56 11 -102 4 -47 8
-92 10 -102 2 -10 7 -59 10 -109 4 -51 8 -100 10 -111 2 -11 7 -56 10 -102 4
-45 8 -98 10 -117 11 -119 22 -246 31 -372 l6 -86 -33 7 c-53 13 -174 55 -315
111 -394 156 -590 269 -943 544 -96 75 -175 136 -177 136 -2 0 10 -37 27 -83
17 -45 32 -86 33 -92 2 -5 6 -17 9 -25 13 -34 68 -192 102 -290 200 -585 225
-657 305 -856 65 -162 132 -303 202 -424 35 -61 228 -350 262 -391 11 -15 30
-39 41 -54 68 -95 248 -319 381 -475 55 -64 161 -186 174 -200 8 -9 58 -64
110 -121 122 -134 553 -565 649 -649 41 -36 86 -76 100 -89 14 -13 50 -44 80
-70 30 -25 104 -89 165 -141 97 -83 223 -185 321 -257 54 -40 314 -213 321
-213 3 0 18 -9 34 -20 68 -48 525 -280 552 -280 8 0 18 -4 24 -9 14 -13 211
-87 377 -142 228 -76 612 -168 768 -185 24 -2 53 -6 64 -8 11 -3 52 -8 90 -11
39 -4 81 -9 95 -11 60 -11 305 -16 295 -6 -11 11 -43 30 -140 85 -90 50 -339
197 -525 310 -91 55 -177 107 -192 116 -158 93 -506 323 -583 384 -56 45 -397
384 -480 478 -62 69 -126 147 -178 214 -125 162 -272 416 -342 590 -15 39 -33
84 -40 100 -14 32 -63 194 -71 235 -3 13 -11 53 -19 90 -7 36 -17 92 -20 125
-4 33 -9 69 -11 80 -6 27 -5 344 0 375 3 14 7 52 11 85 4 33 11 83 16 110 6
28 12 61 15 75 3 14 10 43 16 65 5 22 12 48 14 58 6 35 56 193 81 257 137 359
300 647 502 890 62 74 242 278 294 333 23 24 101 105 172 181 72 75 157 165
190 200 76 79 303 326 330 359 230 275 358 475 470 732 38 87 99 292 111 375
12 79 15 115 18 213 2 60 6 110 8 112 2 3 19 -24 37 -58 31 -59 109 -187 121
-197 3 -3 40 -52 82 -110 164 -228 214 -335 260 -555 17 -81 22 -141 23 -315
3 -233 -3 -293 -55 -535 -17 -83 -33 -160 -36 -172 -2 -12 -9 -34 -14 -48 -5
-14 -8 -25 -6 -25 2 0 -4 -27 -14 -60 -10 -33 -16 -60 -14 -60 10 0 156 156
239 255 28 33 52 62 56 65 3 3 30 37 61 75 118 149 203 303 242 439 l22 78 27
-103 c14 -57 32 -129 40 -159 14 -52 50 -219 62 -285 2 -16 7 -41 10 -55 3
-14 7 -41 10 -60 3 -19 7 -44 9 -55 2 -11 7 -48 11 -82 4 -35 9 -75 11 -90 27
-214 22 -416 -17 -688 -5 -38 -12 -88 -15 -110 -3 -22 -7 -51 -10 -65 -15 -88
-22 -367 -14 -535 6 -137 75 -315 186 -482 93 -139 307 -345 524 -504 77 -57
229 -159 235 -159 2 0 23 -13 47 -29 96 -64 352 -194 543 -276 173 -74 505
-175 505 -154 0 6 -17 36 -38 67 -77 115 -112 193 -138 311 -10 47 -13 314 -3
376 17 111 79 344 146 548 37 111 68 207 69 212 1 6 20 66 42 135 46 144 72
234 78 270 2 14 7 36 10 48 6 29 17 102 17 120 0 19 4 15 34 -35 89 -155 127
-198 503 -573 421 -418 478 -485 573 -661 54 -101 120 -270 142 -368 29 -122
47 -231 61 -361 12 -105 6 -433 -10 -551 -6 -44 -19 -133 -21 -139 0 -3 -5
-27 -9 -55 -15 -93 -80 -353 -106 -420 -4 -11 -29 -78 -55 -150 -65 -177 -158
-377 -249 -535 -31 -54 -34 -77 -8 -56 9 8 46 39 82 68 36 29 67 55 70 58 3 3
39 34 80 70 41 35 100 87 130 115 48 44 154 139 283 255 53 48 71 64 167 150
47 41 152 136 235 209 187 168 577 557 671 671 249 300 391 534 527 865 71
174 144 407 162 518 11 64 26 179 31 232 6 71 6 386 0 465 -3 30 -8 91 -11
135 -3 44 -10 114 -15 155 -5 41 -12 102 -15 135 -3 33 -7 69 -9 81 -2 11 -7
47 -10 79 -4 32 -9 72 -11 89 -2 17 -9 76 -15 131 -6 55 -13 114 -16 130 -5
30 -5 30 14 10 10 -11 63 -72 118 -135 54 -63 122 -140 150 -170 29 -30 70
-75 92 -100 22 -25 84 -90 137 -145 78 -81 362 -378 425 -444 8 -9 51 -57 95
-106 43 -50 84 -95 90 -101 5 -6 19 -23 30 -38 11 -16 25 -34 32 -41 61 -64
190 -270 255 -405 73 -152 113 -262 153 -419 24 -96 27 -109 42 -211 10 -72
10 -622 0 -725 -4 -44 -12 -107 -17 -140 -5 -33 -12 -80 -15 -105 -3 -25 -8
-57 -11 -73 -9 -54 -43 -293 -49 -342 -4 -27 -8 -57 -10 -65 -2 -8 -7 -46 -11
-85 -3 -38 -8 -78 -10 -90 -8 -35 -17 -575 -10 -575 6 0 47 81 52 105 1 6 21
54 43 108 153 368 271 588 461 857 91 128 421 468 674 695 43 39 88 79 100 90
12 11 50 45 86 75 229 194 479 438 605 591 85 102 220 314 297 464 110 215
215 547 254 800 36 238 44 319 59 580 3 71 9 132 12 135 9 9 197 -195 250
-272 136 -196 255 -506 288 -748 2 -14 6 -38 9 -55 7 -36 12 -78 21 -160 7
-60 7 -340 1 -425 -2 -25 -7 -84 -10 -132 -4 -47 -9 -97 -11 -110 -2 -12 -9
-50 -15 -83 -5 -33 -13 -73 -16 -89 l-7 -29 39 23 c48 30 44 27 129 96 180
147 364 364 505 594 64 105 210 403 210 430 0 6 4 18 9 28 24 44 99 286 115
372 3 14 9 48 15 75 5 28 12 70 16 95 3 25 8 52 10 60 4 15 16 130 19 182 1
15 4 29 7 32 4 5 113 -176 191 -319 48 -87 153 -298 177 -355 13 -30 29 -68
37 -85 94 -209 192 -573 219 -815 13 -114 15 -149 14 -290 0 -192 -2 -226 -35
-440 -17 -110 -76 -323 -130 -469 -34 -90 -122 -287 -144 -321 -6 -8 -16 -26
-22 -40 -7 -14 -34 -60 -60 -103 -26 -43 -48 -81 -48 -83 0 -14 -208 -302
-281 -389 -287 -341 -634 -661 -1014 -935 -71 -51 -145 -105 -164 -119 -19
-14 -39 -29 -45 -33 -25 -17 7 -18 70 -3 38 9 77 18 86 20 70 15 504 135 688
191 287 87 534 181 724 276 339 168 908 555 1301 882 66 55 125 105 131 111 6
5 44 39 85 75 304 269 661 679 909 1045 107 159 280 444 280 461 0 7 4 14 9
16 9 3 154 297 196 398 15 36 33 79 40 95 29 63 94 245 128 355 110 356 131
489 129 820 -4 883 0 1004 33 1230 3 20 -12 8 -68 -55 -88 -98 -426 -438 -485
-487 -24 -20 -59 -49 -79 -65 -20 -15 -41 -33 -47 -38 -6 -6 -49 -39 -96 -73
-47 -34 -90 -66 -96 -71 -20 -17 -73 -41 -89 -41 -8 0 -15 8 -16 18 0 9 -2 24
-4 32 -5 24 -14 72 -20 114 -4 21 -8 46 -10 55 -1 9 -6 41 -10 71 -4 30 -9 64
-11 75 -3 17 -24 145 -39 235 -16 102 -32 224 -40 300 -4 30 -8 73 -11 95 -3
22 -7 173 -9 335 -4 300 3 403 34 560 7 30 14 67 16 82 11 59 76 260 110 337
48 109 159 309 185 331 3 3 30 37 59 75 30 39 75 92 100 119 75 79 302 298
377 363 222 193 442 405 540 523 164 197 376 541 463 753 38 92 101 293 101
322 0 12 -22 -13 -56 -64 -111 -165 -236 -280 -419 -383 -228 -129 -580 -245
-915 -302 -14 -2 -63 -11 -110 -19 -47 -9 -104 -18 -127 -21 -22 -3 -52 -7
-65 -10 -12 -3 -45 -8 -73 -11 -27 -4 -63 -9 -80 -11 -16 -2 -68 -9 -115 -14
-47 -6 -98 -13 -115 -15 -112 -14 -150 -19 -255 -30 -78 -8 -124 -14 -210 -25
-41 -5 -100 -12 -130 -15 -30 -3 -68 -8 -85 -10 -16 -3 -46 -7 -65 -9 -70 -9
-135 -18 -159 -22 -13 -2 -45 -6 -70 -9 -44 -6 -243 -39 -306 -51 -81 -14
-312 -77 -404 -109 -367 -128 -584 -240 -905 -465 -98 -69 -299 -265 -399
-390 -152 -190 -311 -479 -408 -743 l-48 -132 1 205 c1 113 -2 225 -5 250 -36
236 -77 358 -250 750 -110 250 -169 405 -201 534 -12 50 -27 90 -32 89 -4 -1
-21 -32 -36 -70 -58 -143 -103 -216 -407 -660 -162 -238 -218 -352 -242 -500
-14 -86 -15 -86 -109 9 -244 244 -425 561 -573 998 -47 138 -112 367 -131 462
-15 73 -37 186 -41 212 -3 17 -7 42 -10 56 -2 14 -7 43 -10 65 -3 23 -7 51
-10 64 -2 13 -7 58 -11 100 -3 42 -7 78 -9 81 -6 11 -19 272 -19 405 0 129 12
363 19 375 2 3 6 30 10 60 4 30 9 58 11 61 2 3 6 20 9 38 3 17 19 68 35 113
16 45 28 83 27 85 -7 6 -146 -145 -223 -242 -372 -470 -636 -1075 -825 -1888
-36 -154 -92 -410 -105 -477 -6 -26 -104 -514 -109 -540 -2 -8 -8 -35 -13 -60
-6 -25 -13 -62 -16 -84 -4 -21 -8 -41 -10 -45 -2 -3 -7 -22 -10 -41 -7 -48
-87 -421 -111 -520 -55 -227 -136 -490 -150 -490 -4 0 -4 3 -2 8 3 4 8 72 11
152 3 80 9 206 13 280 15 272 7 810 -12 880 -2 8 -6 40 -9 70 -16 151 -83 414
-140 545 -80 184 -120 270 -179 385 -215 419 -523 901 -850 1329 -85 112 -350
435 -386 472 -14 15 -46 50 -71 80 -25 29 -79 89 -120 133 -140 148 -153 161
-146 138z"/>
<path d="M31646 9330 c-3 -8 -16 -59 -31 -114 -71 -276 -252 -511 -660 -857
-22 -19 -42 -36 -45 -39 -3 -3 -67 -59 -143 -124 -76 -65 -189 -168 -252 -230
-100 -97 -133 -134 -206 -223 -99 -122 -188 -300 -228 -458 -31 -122 -29 -429
3 -540 11 -36 15 -40 42 -37 16 1 85 21 154 43 753 244 1183 601 1364 1131 74
219 101 399 101 683 0 193 -6 286 -29 441 -8 55 -17 117 -21 139 -3 23 -7 52
-10 65 -3 13 -7 42 -11 64 -3 23 -9 48 -14 56 -8 13 -9 13 -14 0z"/>
<path d="M8260 8585 c0 -3 21 -46 46 -96 68 -136 97 -232 139 -459 1 -8 6 -40
9 -70 4 -30 9 -71 12 -90 2 -19 6 -62 9 -95 3 -33 7 -87 10 -120 3 -33 8 -96
10 -140 3 -44 8 -91 10 -105 3 -14 7 -55 10 -90 2 -36 7 -74 9 -85 2 -11 7
-42 10 -70 4 -27 12 -70 18 -95 5 -25 12 -58 15 -74 9 -56 85 -260 129 -350
49 -98 124 -215 176 -272 67 -74 165 -171 228 -224 36 -30 67 -58 70 -61 10
-12 398 -267 545 -357 118 -73 152 -90 161 -80 23 26 135 340 150 421 2 17 7
33 9 37 2 4 7 22 10 41 3 19 7 45 10 59 22 121 28 190 29 355 0 132 -8 258
-20 320 -2 11 -7 34 -10 50 -67 377 -287 738 -640 1052 -265 236 -655 447
-1049 568 -49 15 -93 29 -97 32 -5 2 -8 2 -8 -2z"/>
<path d="M14297 4528 c-52 -62 -112 -131 -132 -153 -35 -38 -202 -218 -273
-293 -250 -267 -347 -425 -402 -653 -19 -76 -23 -124 -24 -254 -1 -179 5 -250
33 -386 68 -326 182 -576 372 -815 87 -109 244 -264 348 -344 18 -14 38 -30
45 -36 11 -10 153 -110 185 -129 165 -102 419 -235 450 -235 15 0 55 39 187
183 61 67 177 248 235 367 92 188 119 309 118 530 0 63 -2 129 -4 145 -3 17
-7 48 -9 70 -17 138 -95 337 -209 535 -65 113 -238 371 -316 471 -20 26 -43
57 -51 69 -8 12 -20 28 -25 34 -6 6 -38 49 -72 96 -34 47 -67 90 -72 97 -6 6
-37 52 -70 101 -157 235 -197 350 -207 589 -2 64 -6 118 -8 120 -2 2 -47 -47
-99 -109z"/>
<path d="M25638 2269 c-19 -30 -45 -72 -58 -94 -60 -101 -210 -267 -335 -370
-84 -69 -159 -129 -200 -159 -22 -17 -42 -32 -45 -35 -3 -4 -12 -10 -21 -16
-9 -5 -113 -78 -230 -161 -118 -82 -245 -172 -284 -199 -296 -206 -509 -396
-700 -626 -67 -80 -205 -329 -205 -368 0 -26 44 -47 166 -79 113 -31 129 -33
309 -36 144 -3 302 11 410 37 120 29 305 114 442 202 118 77 185 133 300 250
231 236 399 538 482 870 40 157 46 228 45 490 -1 198 -12 317 -33 338 -5 5
-23 -13 -43 -44z"/>
</g>
</svg>
