<?xml version="1.0" standalone="no"?>
<!DOCTYPE svg PUBLIC "-//W3C//DTD SVG 20010904//EN"
 "http://www.w3.org/TR/2001/REC-SVG-20010904/DTD/svg10.dtd">
<svg version="1.0" xmlns="http://www.w3.org/2000/svg"
 width="2409.000000pt" height="2972.000000pt" viewBox="0 0 2409.000000 2972.000000"
 preserveAspectRatio="xMidYMid meet">

<g transform="translate(0.000000,2972.000000) scale(0.100000,-0.100000)"
fill="#000000" stroke="none">
<path d="M12047 29698 c-37 -55 -69 -209 -156 -758 -79 -495 -147 -802 -246
-1105 -230 -703 -652 -1350 -1320 -2021 -261 -262 -459 -422 -707 -570 -418
-249 -890 -362 -1221 -292 -47 10 -48 10 -32 31 249 339 344 643 377 1212 11
196 4 479 -12 473 -4 -2 -45 -50 -90 -108 -113 -141 -460 -487 -645 -641 -347
-289 -705 -535 -1154 -793 -260 -150 -388 -219 -811 -436 -546 -281 -679 -355
-895 -501 -405 -273 -655 -557 -860 -974 -46 -93 -105 -228 -130 -300 -90
-249 -166 -596 -200 -915 -21 -193 -30 -675 -16 -859 6 -80 9 -147 6 -149 -5
-5 -47 133 -75 244 -93 377 -120 957 -65 1415 64 530 226 1232 440 1907 49
157 54 182 26 137 -10 -16 -60 -97 -112 -180 -287 -464 -703 -1057 -919 -1310
-146 -171 -432 -457 -820 -820 -502 -469 -604 -578 -810 -860 -391 -538 -550
-942 -550 -1400 0 -324 70 -583 254 -940 277 -537 671 -1078 1110 -1523 147
-149 148 -144 -19 -96 -304 87 -620 255 -900 481 -132 106 -346 317 -475 467
-184 216 -409 535 -546 773 -33 56 -63 102 -69 101 -12 -1 -29 -44 -94 -238
-134 -396 -233 -845 -287 -1290 -21 -181 -31 -721 -15 -901 22 -250 68 -506
126 -710 156 -543 419 -917 857 -1222 407 -284 1152 -621 1621 -733 42 -11 77
-22 77 -26 0 -3 -37 -20 -82 -36 -540 -195 -1058 -192 -2186 14 -134 24 -250
44 -257 44 -31 0 266 -673 471 -1069 333 -641 625 -1052 919 -1294 240 -197
484 -338 715 -414 194 -64 291 -78 525 -77 460 1 987 116 1357 297 l107 52
-32 -34 c-71 -74 -279 -250 -411 -348 -270 -201 -560 -365 -791 -448 -250 -90
-650 -188 -1039 -255 -99 -17 -182 -33 -184 -35 -6 -5 24 -45 147 -195 304
-371 774 -840 1098 -1098 284 -226 601 -393 884 -466 338 -87 782 -110 1008
-51 227 59 475 181 674 331 31 24 57 39 57 34 0 -31 -69 -221 -115 -315 -151
-312 -346 -493 -660 -614 -231 -89 -438 -124 -742 -125 -123 -1 -223 -2 -223
-3 0 -6 304 -244 415 -325 719 -524 1339 -812 1845 -859 158 -15 489 -6 635
16 461 70 823 250 1157 573 344 333 535 621 673 1017 23 66 45 121 48 123 22
8 38 -4 71 -53 70 -101 392 -400 516 -480 291 -185 724 -511 850 -639 35 -36
67 -66 71 -66 15 0 72 68 94 110 78 153 85 422 16 623 -20 57 -20 57 0 47 10
-6 43 -30 73 -54 70 -57 106 -80 294 -183 283 -155 381 -224 541 -378 212
-204 348 -430 411 -680 21 -85 49 -285 50 -357 0 -21 4 -38 8 -38 10 0 104 97
130 136 62 90 133 269 167 417 52 226 69 610 41 927 -39 451 -154 1040 -277
1425 -21 65 -36 121 -34 123 5 6 193 -118 290 -191 331 -251 751 -666 1096
-1087 207 -251 481 -642 589 -838 25 -45 47 -82 51 -82 3 0 15 21 28 47 41 84
181 325 258 443 226 344 393 522 733 779 118 89 491 343 497 338 1 -2 -2 -55
-8 -118 -14 -140 -6 -420 16 -549 44 -265 129 -446 279 -596 245 -244 662
-441 1143 -540 302 -62 1152 10 1668 141 564 143 1225 428 1833 791 78 47 142
89 142 93 0 4 -26 15 -57 25 -278 87 -647 288 -817 447 -221 207 -445 546
-532 807 -15 45 -25 85 -21 88 3 3 48 -12 99 -34 289 -124 657 -214 940 -231
543 -32 1145 130 1555 418 236 166 583 585 856 1036 l54 90 -216 7 c-791 26
-1093 51 -1341 114 -233 59 -556 261 -791 495 -153 152 -153 155 -16 107 202
-71 480 -133 797 -177 428 -59 669 -52 935 30 263 81 546 248 810 475 322 280
706 884 1090 1719 99 215 259 594 253 600 -1 2 -57 -8 -123 -21 -165 -34 -627
-109 -815 -134 -513 -66 -839 -67 -1169 -5 -114 22 -303 77 -376 110 l-60 27
110 29 c497 131 1199 451 1593 726 566 395 848 906 969 1763 23 161 26 860 5
1035 -54 442 -132 821 -246 1186 -55 176 -123 370 -135 382 -4 4 -39 -45 -77
-110 -347 -598 -799 -1107 -1249 -1404 -205 -136 -492 -268 -695 -319 -47 -12
-94 -24 -105 -27 -11 -3 52 68 140 159 542 555 1077 1358 1248 1874 202 610
132 1252 -204 1870 -208 381 -386 587 -1014 1171 -590 548 -791 768 -1110
1213 -180 252 -432 629 -569 850 -60 96 -115 186 -123 198 -8 13 -17 22 -19
19 -2 -2 22 -89 55 -193 222 -709 383 -1429 437 -1959 20 -194 22 -612 5 -805
-25 -275 -75 -537 -135 -705 l-25 -70 7 85 c4 47 7 245 6 440 0 302 -4 383
-23 540 -115 954 -460 1624 -1101 2137 -234 187 -502 354 -1140 713 -688 387
-990 570 -1486 900 -395 264 -752 524 -1003 730 -67 56 -126 98 -130 95 -11
-12 -6 -547 7 -660 52 -448 138 -706 322 -963 l58 -81 -46 -7 c-68 -11 -248
18 -375 60 -415 137 -883 483 -1418 1049 -692 732 -1010 1214 -1183 1797 -64
215 -106 406 -196 895 -117 639 -174 882 -209 893 -24 8 -2 -1859 25 -2182 9
-99 28 -123 168 -208 223 -136 306 -269 306 -488 0 -161 -48 -284 -153 -397
-52 -55 -151 -132 -187 -145 -11 -4 28 -238 75 -447 166 -743 525 -1659 793
-2021 160 -217 315 -338 822 -645 873 -528 1297 -823 1668 -1158 763 -689
1279 -1591 1382 -2412 35 -280 113 -508 219 -643 100 -126 289 -231 528 -293
48 -12 92 -25 96 -29 6 -5 -242 -209 -305 -251 -5 -3 -25 -100 -46 -215 l-37
-209 -340 -96 -340 -96 -1 -484 c-1 -627 -12 -1037 -30 -1173 -76 -553 -359
-979 -793 -1196 -213 -106 -448 -159 -743 -167 -360 -10 -574 41 -807 193 -67
44 -149 120 -366 338 -305 306 -383 400 -456 549 -58 119 -68 171 -45 232 33
85 100 125 341 205 402 133 629 312 766 604 45 97 103 286 87 286 -2 0 -47
-16 -100 -35 -197 -70 -377 -91 -523 -60 -149 32 -315 137 -433 275 -64 75
-149 206 -140 216 3 2 47 11 99 19 266 42 390 88 482 178 44 43 117 147 117
167 0 3 -60 6 -132 5 -155 0 -240 17 -363 75 -149 69 -322 220 -435 382 l-51
73 105 12 c118 13 188 39 250 93 37 33 96 111 96 127 0 5 -28 15 -62 22 -99
20 -217 60 -299 102 -90 45 -163 102 -394 309 -324 290 -487 407 -730 525
-175 86 -322 138 -455 161 -121 21 -396 14 -650 -15 -206 -24 -404 -27 -475
-7 -28 8 -122 39 -210 70 -575 199 -1080 243 -1446 125 -238 -76 -449 -245
-563 -452 -39 -71 -86 -197 -86 -230 1 -21 2 -21 21 6 32 42 152 133 222 166
132 65 287 78 414 36 58 -20 85 -44 123 -111 22 -39 55 -64 265 -200 808 -525
1040 -737 1235 -1129 98 -199 156 -381 227 -715 28 -134 28 -137 27 -495 0
-396 -4 -436 -69 -690 -37 -145 -85 -269 -151 -395 -102 -193 -273 -394 -413
-485 -427 -276 -1243 -445 -1746 -360 -418 70 -748 277 -998 626 -97 135 -213
373 -275 562 l-52 157 0 749 0 749 -47 16 c-27 8 -169 52 -318 96 -148 45
-273 85 -277 88 -4 4 -22 96 -42 205 -19 108 -38 202 -41 207 -3 5 -76 64
-162 132 -175 137 -172 125 -31 152 208 39 386 111 475 190 91 82 151 230 192
477 11 68 37 273 56 454 42 382 62 510 110 691 210 801 742 1473 1640 2071
392 261 616 388 1161 659 584 290 703 364 891 550 346 345 716 1111 903 1866
51 207 95 450 106 588 l7 77 -36 22 c-48 30 -137 127 -180 198 -85 139 -119
343 -83 496 29 124 70 182 213 302 141 117 135 105 145 302 9 170 0 1683 -11
1958 -6 150 -6 150 -24 123z m8 -10346 c47 -13 70 -26 105 -62 44 -45 176
-228 169 -234 -8 -6 -278 33 -339 48 -73 19 -143 59 -284 165 l-101 75 40 8
c136 29 304 29 410 0z"/>
<path d="M12392 8235 c2 -5 20 -40 41 -78 49 -86 100 -228 127 -354 28 -127
38 -406 21 -565 -38 -351 -158 -752 -321 -1079 -87 -172 -219 -340 -496 -630
-350 -365 -482 -536 -566 -730 -58 -135 -71 -198 -72 -336 l-1 -122 -33 32
c-88 85 -133 200 -134 342 0 112 19 216 79 426 46 158 47 169 47 294 0 115 -4
140 -28 215 -32 99 -94 220 -172 338 -51 76 -74 93 -74 56 0 -30 -53 -171
-100 -264 -67 -132 -138 -230 -245 -335 -101 -100 -221 -191 -211 -159 3 10
31 108 61 217 103 366 131 545 122 757 -8 193 -40 316 -127 497 -84 172 -178
302 -329 454 -147 147 -215 201 -561 444 -124 87 -283 201 -353 253 -70 52
-129 93 -130 91 -1 -2 -10 -35 -20 -74 -25 -101 -107 -260 -195 -378 -50 -68
-203 -230 -452 -482 -408 -412 -498 -514 -625 -705 -146 -218 -237 -428 -286
-660 -20 -91 -23 -136 -23 -330 -1 -145 4 -249 12 -294 7 -37 11 -71 8 -74
-12 -11 -207 149 -321 263 -66 66 -190 203 -275 305 -443 527 -633 706 -927
872 -295 166 -589 264 -958 317 -214 31 -746 70 -744 55 0 -5 45 -47 100 -94
204 -173 425 -422 572 -644 274 -413 361 -688 397 -1246 6 -91 15 -235 20
-320 6 -85 22 -261 36 -390 32 -303 82 -864 77 -870 -11 -12 -343 113 -483
182 -184 90 -296 163 -479 309 -74 60 -136 107 -138 105 -2 -2 10 -39 28 -82
17 -44 83 -232 146 -418 132 -392 203 -578 279 -726 206 -405 839 -1149 1354
-1594 69 -59 152 -131 185 -160 477 -417 1086 -700 1738 -811 142 -24 444 -51
455 -40 7 7 16 0 -123 80 -257 147 -628 373 -793 482 -161 106 -187 128 -355
296 -260 260 -404 453 -523 701 -223 465 -215 952 25 1483 140 309 265 479
639 869 388 404 480 509 603 693 168 250 258 512 259 756 l1 80 39 -75 c22
-42 72 -118 112 -170 147 -194 193 -286 228 -459 26 -129 28 -328 5 -486 -14
-96 -74 -365 -92 -411 -12 -33 16 -7 121 111 198 220 288 357 325 495 l18 63
31 -119 c60 -227 95 -426 112 -630 12 -147 4 -271 -32 -512 -29 -195 -31 -456
-5 -552 26 -92 86 -213 148 -295 193 -256 615 -546 1037 -714 99 -40 300 -101
330 -101 9 0 2 16 -21 48 -88 120 -120 226 -120 392 1 156 30 280 153 650 89
268 106 331 125 454 l6 39 31 -54 c56 -99 119 -172 277 -324 384 -370 453
-449 540 -623 140 -280 178 -687 100 -1089 -49 -255 -146 -520 -276 -756 -30
-54 -53 -100 -51 -103 6 -5 218 175 353 300 61 56 211 192 335 301 582 515
812 793 986 1190 187 431 214 694 135 1340 -17 132 -33 267 -36 300 l-7 60 34
-40 c133 -159 238 -273 462 -504 270 -277 386 -410 481 -551 114 -171 203
-388 241 -595 26 -135 26 -515 1 -685 -9 -63 -33 -223 -53 -355 -29 -197 -37
-279 -41 -457 -3 -125 -2 -218 3 -218 5 0 31 58 58 128 101 263 230 505 368
690 97 131 388 420 638 634 225 193 382 349 479 476 273 361 399 749 429 1327
l7 130 76 -75 c191 -189 307 -463 350 -824 21 -178 0 -548 -38 -671 -6 -19 -5
-19 23 -1 156 100 340 295 462 492 168 270 273 576 306 887 l11 108 81 -138
c336 -569 456 -1065 378 -1563 -105 -675 -585 -1317 -1405 -1882 -41 -29 -49
-38 -32 -38 39 0 583 149 767 211 287 95 450 173 712 339 478 305 884 639
1171 965 438 496 751 1070 887 1620 44 179 49 242 45 525 -6 417 -2 635 14
745 9 55 14 101 13 103 -2 1 -46 -46 -99 -106 -138 -156 -309 -317 -447 -421
-139 -105 -178 -128 -185 -109 -7 23 -84 509 -101 638 -24 194 -30 520 -10
666 47 355 167 608 409 861 45 47 179 172 297 278 295 263 363 337 495 540 98
150 156 254 204 366 37 89 85 248 77 256 -2 2 -20 -23 -40 -56 -143 -235 -435
-396 -898 -496 -219 -47 -425 -76 -943 -135 -488 -56 -705 -94 -902 -159 -515
-169 -878 -427 -1117 -793 -72 -111 -167 -306 -210 -434 l-34 -99 5 130 c12
284 -24 424 -210 830 -65 142 -115 281 -141 390 -10 45 -15 55 -21 40 -49
-141 -103 -234 -267 -463 -167 -232 -226 -346 -243 -469 l-7 -52 -44 37 c-53
44 -154 163 -211 247 -176 263 -321 673 -388 1100 -62 398 -54 812 20 992 14
35 25 66 25 70 0 12 -61 -50 -134 -137 -240 -287 -420 -641 -561 -1106 -68
-223 -127 -479 -231 -1004 -106 -531 -168 -801 -223 -965 l-31 -90 5 115 c3
63 10 216 15 339 20 420 -19 743 -120 995 -185 463 -575 1076 -1008 1586 -136
160 -326 365 -320 345z"/>
<path d="M20911 6953 c-7 -37 -26 -101 -43 -141 -74 -178 -200 -321 -539 -608
-247 -210 -373 -336 -452 -456 -106 -159 -147 -291 -147 -472 0 -107 15 -233
30 -249 4 -5 65 11 136 34 397 129 668 295 845 517 205 256 289 612 249 1047
-12 126 -49 364 -59 383 -4 7 -13 -16 -20 -55z"/>
<path d="M3382 6433 c2 -5 20 -40 41 -80 75 -145 107 -307 132 -663 9 -124 25
-275 35 -335 32 -186 99 -360 193 -500 56 -84 196 -225 298 -300 87 -66 493
-325 508 -325 11 0 74 164 105 273 82 284 79 606 -9 863 -65 189 -171 358
-325 518 -222 229 -499 398 -849 515 -133 44 -134 45 -129 34z"/>
<path d="M7925 3413 c-27 -37 -113 -133 -190 -215 -291 -308 -350 -387 -404
-535 -75 -203 -64 -465 31 -762 102 -323 340 -604 696 -824 102 -63 285 -157
306 -157 15 0 117 111 188 205 73 96 143 227 178 332 28 84 34 116 38 227 12
328 -88 548 -492 1081 -235 309 -286 423 -286 635 0 44 -3 80 -7 80 -5 -1 -30
-31 -58 -67z"/>
<path d="M16406 1685 c-109 -198 -275 -350 -706 -645 -295 -202 -423 -302
-555 -435 -123 -123 -186 -208 -247 -330 -59 -118 -61 -110 32 -139 122 -39
208 -49 365 -43 218 8 382 63 576 192 292 195 507 522 584 890 32 151 30 467
-4 557 -7 18 -12 12 -45 -47z"/>
</g>
</svg>
